<svg width="98" height="99" viewBox="0 0 98 99" fill="none" xmlns="http://www.w3.org/2000/svg">
<path d="M47.6246 1.30281C48.396 0.572147 49.604 0.572147 50.3754 1.30281L56.9587 7.53871C57.5037 8.055 58.292 8.22256 59 7.97259L67.5505 4.95348C68.5523 4.59973 69.6559 5.09109 70.0634 6.07232L73.5412 14.4468C73.8291 15.1401 74.4811 15.6138 75.2295 15.6734L84.2688 16.3931C85.3279 16.4774 86.1362 17.3752 86.1094 18.4373L85.8803 27.5023C85.8613 28.2528 86.2643 28.9508 86.9237 29.3096L94.8888 33.6437C95.822 34.1515 96.1953 35.3004 95.7388 36.2598L91.8425 44.4479C91.5199 45.1258 91.6041 45.9273 92.0606 46.5233L97.5742 53.7224C98.2202 54.5659 98.0939 55.7673 97.2867 56.4581L90.3968 62.3535C89.8263 62.8416 89.5773 63.6081 89.7519 64.3382L91.8607 73.1575C92.1078 74.1908 91.5038 75.237 90.4853 75.5397L81.7932 78.1231C81.0736 78.337 80.5343 78.9359 80.3968 79.6739L78.7362 88.5884C78.5416 89.6329 77.5643 90.343 76.5108 90.2053L67.5194 89.0299C66.775 88.9326 66.0388 89.2604 65.613 89.8787L60.47 97.3471C59.8674 98.2222 58.6858 98.4733 57.7794 97.919L50.0434 93.1881C49.403 92.7964 48.597 92.7964 47.9566 93.1881L40.2206 97.919C39.3142 98.4733 38.1326 98.2222 37.53 97.3471L32.387 89.8787C31.9612 89.2604 31.225 88.9326 30.4806 89.0299L21.4892 90.2053C20.4357 90.343 19.4584 89.6329 19.2638 88.5884L17.6032 79.6739C17.4657 78.9359 16.9264 78.337 16.2068 78.1231L7.51469 75.5397C6.49623 75.237 5.89221 74.1908 6.1393 73.1575L8.2481 64.3382C8.4227 63.6081 8.17366 62.8416 7.60322 62.3535L0.713343 56.4581C-0.0939447 55.7673 -0.220218 54.5659 0.42581 53.7224L5.93941 46.5233C6.3959 45.9273 6.48014 45.1258 6.15755 44.4479L2.2612 36.2598C1.80467 35.3004 2.17797 34.1515 3.11124 33.6437L11.0763 29.3096C11.7357 28.9508 12.1387 28.2528 12.1197 27.5023L11.8906 18.4373C11.8638 17.3752 12.6721 16.4774 13.7312 16.3931L22.7705 15.6734C23.5189 15.6138 24.1709 15.1401 24.4588 14.4468L27.9366 6.07232C28.3441 5.09109 29.4477 4.59973 30.4495 4.95348L39 7.97259C39.708 8.22256 40.4963 8.055 41.0413 7.53871L47.6246 1.30281Z" fill="#7EDAD2"/>
</svg>
